<svg width="59" height="65" viewBox="0 0 59 65" fill="none" xmlns="http://www.w3.org/2000/svg">
<path d="M56.1742 47.85C57.3243 46.1991 57.3676 45.9023 56.7092 44.8059C56.1521 43.8456 55.3983 43.4022 53.186 42.7764C48.0408 41.268 45.5006 42.4736 50.289 44.1421C51.7043 44.6214 52.8056 45.1761 52.7796 45.3542C52.6843 46.0072 47.7078 47.7061 44.4825 48.2056C35.0188 49.7046 24.8837 45.8315 22.3395 39.792C21.5648 37.83 21.4072 36.6248 21.9174 36.2445C22.0874 36.1178 23.0632 36.0783 24.1063 36.2001C28.8137 36.5534 32.9518 34.3684 32.8072 31.6193C32.7281 29.6678 28.9168 27.5355 25.8622 27.6962C23.9614 27.8432 21.794 29.1942 20.4818 31.1246L19.323 32.8349L16.3414 31.2481C10.7085 28.3045 6.91078 24.4162 5.0498 19.7192C4.56137 18.4961 3.83613 17.0262 3.40517 16.4481L2.61065 15.4531L2.54752 16.717C2.46644 18.3117 3.56013 21.4115 5.23137 24.2924C6.92796 27.2074 10.9557 30.7655 15.436 33.2985L18.9933 35.3027L19.3679 37.7216C20.9844 47.6269 35.9145 53.7455 48.1097 49.5228C49.6382 49.0183 51.1668 48.5138 51.4896 48.3791C51.9057 48.2276 51.9385 48.6264 51.5112 49.6856C51.1778 50.516 51.0906 51.3217 51.3701 51.4838C52.0558 51.9778 54.7853 49.8905 56.1742 47.85ZM25.165 33.9296C22.6706 33.9901 21.8248 33.1392 22.9403 31.7258C24.1666 30.1769 26.849 29.6588 28.7973 30.6402C30.805 31.6303 30.805 31.6303 30.1582 32.324C29.392 33.2126 27.4133 33.8939 25.165 33.9296Z" fill="white"/>
</svg>
