<svg width="53" height="45" viewBox="0 0 53 45" fill="none" xmlns="http://www.w3.org/2000/svg">
<path d="M18.9078 0.322729C17.1321 0.741906 14.7992 2.27889 13.8243 3.71107C12.2575 6.01654 10.7951 10.1384 10.7951 12.4439C10.7951 14.5049 10.5862 14.6446 8.77566 14.0857C5.22419 13.0377 1.6379 13.8761 0.523716 16.0418C-0.311924 17.6487 -0.137833 20.1288 0.976354 22.5041C2.0209 24.7048 4.59746 27.5692 6.30356 28.4774C7.5222 29.1062 7.55702 29.3158 6.47765 30.3288C5.15456 31.5863 5.0501 32.6342 6.09465 34.8C7.48739 37.5945 9.7854 39.7253 13.6502 41.8212C19.1167 44.7205 24.6876 45.8034 26.9857 44.3712C27.7865 43.9171 30.2934 40.5637 31.1639 38.852C31.1987 38.7822 31.8254 39.0965 32.5914 39.4808C33.6011 40.0048 34.3323 40.1445 35.4465 40.0048C40.9826 39.2712 50.0702 30.4685 52.4031 23.5521C53.1691 21.3165 53.2039 16.985 52.4727 15.3432C51.254 12.5836 48.2597 11.0467 45.7527 11.8501C44.0815 12.374 42.5495 13.2823 40.7041 14.8542C39.9033 15.5179 39.1721 16.0418 39.0328 16.0418C38.8935 16.0418 38.615 15.1336 38.3713 14.0158C37.6053 10.2782 35.3769 7.9727 32.487 7.83297C30.9201 7.79804 30.8505 7.72818 30.1193 6.05147C29.3533 4.3049 27.299 2.17409 25.5233 1.23094C24.6876 0.811768 20.788 -0.0964471 20.2309 0.008347C20.1264 0.0432784 19.5345 0.148072 18.9078 0.322729ZM23.086 3.60628C25.001 4.3049 26.5678 5.66723 27.5079 7.37886L28.3088 8.91584L27.0205 10.5925C25.384 12.7583 24.7573 14.2953 24.4787 16.8103C24.3046 18.6617 24.1654 18.8713 22.9467 19.7096C20.8228 21.1069 18.8382 25.9623 18.8033 29.7C18.8033 30.3986 18.6989 31.0274 18.5944 31.1322C18.49 31.2719 17.4454 30.8877 16.2616 30.3288C15.0778 29.7699 13.2672 29.176 12.2227 28.9664C8.81048 28.3377 5.50274 25.5781 3.65737 21.8404C2.68245 19.8843 2.54318 18.2425 3.27437 17.2295C4.04037 16.2165 6.93029 16.3562 9.54167 17.5439C11.7004 18.5569 13.0235 18.7316 13.4413 18.1028C13.5806 17.8932 13.7199 16.2864 13.7547 14.5049C13.9288 9.12543 15.7393 5.07339 18.5596 3.81587C20.2657 3.01244 21.2755 2.97751 23.086 3.60628ZM33.3922 10.6275C34.8894 11.396 35.7947 13.6316 35.9688 17.0199C36.2473 21.8754 37.1526 22.085 41.3308 18.1377C44.743 14.924 46.7277 13.946 48.3641 14.6446C49.722 15.2035 50.314 16.7055 50.314 19.535C50.314 22.1548 49.0953 25.1589 46.7277 28.3377C43.6288 32.5294 37.3267 37.35 34.9242 37.35C33.8101 37.35 32.0343 36.7212 32.0343 36.337C32.0691 36.2322 32.278 35.1842 32.5566 34.0315C33.2181 31.3418 33.2181 27.1151 32.5566 24.9144C31.7906 22.3295 30.2238 20.4083 27.9954 19.3603C26.15 18.487 26.0804 18.4172 26.2893 17.3343C26.7768 14.924 28.3088 12.409 30.0845 11.2213C31.9995 9.92885 32.0691 9.92885 33.3922 10.6275ZM28.448 23.2377C29.6319 24.6 30.2934 26.8356 30.2934 29.5952C30.2586 33.6822 28.1695 39.6205 25.7322 42.3452L24.5484 43.6725L21.9718 42.939C16.7839 41.4719 11.8049 38.328 9.36758 35.0096C8.04448 33.1931 8.11412 32.1103 9.57649 31.6911C11.1781 31.237 12.745 31.6562 16.1223 33.3678C19.3256 34.9746 20.2309 35.1842 20.8576 34.4507C21.0665 34.1712 21.3799 32.4246 21.5888 30.5034C22.0415 26.3815 22.7378 24.0761 23.9565 22.6439C24.7225 21.7007 25.001 21.5959 26.0804 21.7706C26.9508 21.8754 27.682 22.3644 28.448 23.2377Z" fill="white"/>
</svg>
