<svg className="Heart2" width="45" height="42" viewBox="0 0 45 42" fill="none" xmlns="http://www.w3.org/2000/svg">
<path d="M3.45619 0.569558C1.72809 1.16675 0 5.04853 0 8.40775C0.0822901 20.0531 8.72276 34.8337 18.5976 40.0591L22.2183 42L25.0162 40.4324C35.6316 34.4604 46.4116 17.291 44.8481 8.9303C43.2846 0.64421 36.7014 0.196313 27.238 7.81056C24.9339 9.67679 22.7121 11.2444 22.3829 11.1698C22.0538 11.1698 20.1611 9.30355 18.1861 7.06406C13.0018 1.01746 8.06443 -1.14738 3.45619 0.569558ZM10.5331 6.46687C11.5206 7.06406 13.8247 9.60214 15.6351 11.9909C19.0913 16.6192 20.984 18.0375 23.0412 17.3657C23.6996 17.2164 26.4974 15.1262 29.213 12.7374C34.5619 8.10915 37.442 6.46687 38.6764 7.13871C39.1701 7.36266 39.4993 9.37819 39.4993 11.543C39.4993 17.291 35.1379 24.8306 27.7318 31.8477C24.6048 34.9083 21.56 37.3717 20.984 37.3717C19.0913 37.3717 13.2487 30.6533 10.2863 25.1292C7.15924 19.4559 4.52596 9.75144 5.34886 6.98941C5.8426 4.97388 7.89985 4.74993 10.5331 6.46687Z"/>
</svg>
