<svg width="41" height="39" viewBox="0 0 41 39" fill="none" xmlns="http://www.w3.org/2000/svg">
<path d="M3.14897 0.528877C1.57448 1.08342 0 4.68792 0 7.8072C0.0749755 18.6207 7.9474 32.3455 16.9445 37.1977L20.2434 39L22.7925 37.5443C32.4644 31.9989 42.2862 16.056 40.8616 8.29242C39.4371 0.598194 33.4391 0.182293 24.8169 7.25266C22.7176 8.98559 20.6932 10.4413 20.3933 10.3719C20.0934 10.3719 18.369 8.63901 16.5696 6.55949C11.8461 0.944782 7.3476 -1.06542 3.14897 0.528877ZM9.59686 6.00495C10.4966 6.55949 12.5959 8.91628 14.2453 11.1344C17.3943 15.4321 19.1187 16.7491 20.9931 16.1253C21.5929 15.9866 24.1421 14.0458 26.6163 11.8276C31.4897 7.52993 34.1138 6.00495 35.2385 6.6288C35.6883 6.83675 35.9882 8.70832 35.9882 10.7185C35.9882 16.056 32.0145 23.057 25.2667 29.5728C22.4177 32.4149 19.6436 34.7023 19.1187 34.7023C17.3943 34.7023 12.071 28.4638 9.37193 23.3343C6.52287 18.0662 4.12365 9.05491 4.8734 6.49017C5.32326 4.6186 7.19764 4.41065 9.59686 6.00495Z" fill="#FEFBD8"/>
</svg>
