<svg width="36" height="42" viewBox="0 0 36 42" fill="none" xmlns="http://www.w3.org/2000/svg">
<path d="M22.3823 0.857142C21.0416 1.31428 19.2742 2.09143 18.4819 2.59429C17.0802 3.46286 17.0192 3.46286 13.6673 1.95429C7.99948 -0.605715 3.55055 0.0342863 0.929945 3.73714C-0.349886 5.56571 -0.288942 10.8229 0.990889 15.0286C3.85527 24.3086 8.73081 30.7543 19.1523 39.2114L22.6261 42L24.1497 40.5371C25.9171 38.7086 30.6708 30.8457 32.7429 26.2743C38.045 14.3886 36.7652 3.41714 29.6957 0.857142C26.5875 -0.285715 25.4905 -0.285715 22.3823 0.857142ZM29.2081 3.37143C30.6098 4.10286 32.0725 7.07429 32.6819 10.3657C33.2304 13.0629 32.1334 19.2343 30.3051 23.8971C28.5987 28.24 22.8089 38.3429 22.0167 38.3429C20.6759 38.3429 13.1797 30.3886 10.1935 25.7714C3.67244 15.8514 1.72222 4.46857 6.35399 3.32571C8.18232 2.91429 11.2295 3.50857 13.1797 4.69714L14.9471 5.79428L13.8501 9.08571C12.0828 14.3886 13.6673 19.5543 17.3849 20.88C18.8476 21.4286 19.3351 21.3829 20.615 20.7429C21.4682 20.3314 22.4433 19.4629 22.748 18.7771C23.845 16.7657 23.0527 11.4629 21.2853 8.49143C20.4321 7.02857 19.8227 5.61143 20.0055 5.29143C20.554 4.24 24.2107 2.68571 26.039 2.68571C27.075 2.68571 28.4768 3.00571 29.2081 3.37143ZM19.0913 11.2343C20.0055 13.3371 20.1274 17.1314 19.2132 17.8171C17.6287 19.0057 15.8004 13.7486 16.8364 10.6857C17.3849 9.04 18.1772 9.26857 19.0913 11.2343Z" fill="white"/>
</svg>
