<svg width="428" height="540" viewBox="0 0 428 540" fill="none" xmlns="http://www.w3.org/2000/svg">
<path d="M397.982 9.09106C343.955 31.7762 288.323 123.996 271.74 219.175C268.531 237.915 264.251 255.176 262.647 257.148C261.042 259.121 243.924 250.737 224.667 238.408C117.148 169.86 0 190.572 0 278.847C0 350.355 126.777 466.739 251.413 509.644C307.58 529.37 354.118 541.699 362.142 538.74C384.074 530.85 479.29 367.615 507.106 288.217C555.784 152.106 537.062 36.2146 461.638 6.6253C438.636 -2.2515 424.193 -1.75836 397.982 9.09106ZM458.963 49.0366C480.895 68.2697 488.919 88.9822 491.058 137.311C494.803 204.874 479.29 262.573 433.287 352.82C412.425 394.245 360.003 483.507 343.42 506.685C334.861 518.028 233.226 474.137 172.245 432.712C100.565 383.889 42.7938 314.847 42.7938 277.861C42.7938 244.819 62.5859 232.984 111.799 237.422C147.104 240.381 189.897 260.107 226.272 290.19C284.044 337.039 302.231 329.642 310.79 255.669C313.464 230.025 319.883 196.983 324.163 182.189C346.095 109.202 399.052 39.1735 431.147 39.1735C440.241 39.1735 452.544 43.6119 458.963 49.0366Z" fill="white"/>
</svg>
