<svg width="36" height="41" viewBox="0 0 36 41" fill="none" xmlns="http://www.w3.org/2000/svg">
<path d="M15.9081 0.771792C15.4703 1.21881 14.6432 3.9009 14.0108 7.25351L12.8919 12.9753L7.54054 14.9422C2.38378 16.8643 0 18.4289 0 19.904C0 21.111 1.84865 22.2285 4.71892 22.7202C10.6541 23.7931 13.8162 24.5977 14.6432 25.2682C15.1297 25.6705 16.5892 28.5761 18 31.7499C20.9189 38.5445 22.0865 40.5114 23.4973 40.9137C25.9784 41.6289 26.8541 37.9634 26.6108 27.4586C26.5622 24.5083 26.6595 21.6027 26.8541 20.9769C27.0486 20.2616 28.9459 18.5183 31.6216 16.5961C35.3676 13.8246 36 13.1541 36 12.0366C36 10.2485 34.7838 10.025 29.1405 10.8296C22.8162 11.7684 22.5243 11.6343 20.8703 6.35948C18.973 0.324779 17.7081 -1.10567 15.9081 0.771792ZM18.8757 9.13097C20.3838 13.8693 21.9892 14.5845 28.8 13.6011L30.8919 13.3329L29.1892 14.7187C28.2649 15.4786 26.8054 16.7302 25.9297 17.4007C23.7892 19.2335 23.3514 21.0663 23.3514 28.9784C23.3514 33.1357 23.1568 35.7283 22.9135 35.4601C22.6703 35.2366 21.5514 32.8227 20.4324 30.1407C19.2649 27.4139 17.9514 24.6871 17.4649 24.0613C16.2973 22.4967 12.6 21.111 8.07568 20.4404C6.03243 20.1722 4.37838 19.7699 4.37838 19.6358C4.37838 19.1441 11.5297 16.5067 12.8432 16.5067C14.1568 16.5067 14.4 15.9703 16.3459 8.77336C16.7838 7.1194 17.2703 5.77836 17.4649 5.77836C17.6595 5.77836 18.2919 7.29821 18.8757 9.13097Z" fill="white"/>
</svg>
