<svg width="43" height="41" viewBox="0 0 43 41" fill="none" xmlns="http://www.w3.org/2000/svg">
<path d="M35.8718 38.5891C33.6062 37.1948 30.8372 35.547 29.7673 34.9766L27.7534 33.9626L25.1103 36.9413C23.2852 39.0327 22.0895 39.8566 21.1455 39.7298C19.9498 39.5397 19.8239 39.0327 19.5092 33.8358L19.1946 28.132L10.5727 24.266C1.38453 20.1466 0 19.3227 0 17.9284C0 16.2173 2.83198 15.2666 9.43995 14.7596C19.8868 14.0625 19.1316 14.6329 19.5092 6.8376C19.8239 0.563367 19.8868 0.246486 21.2713 0.0563578C23.2223 -0.260523 24.1033 0.626743 27.8164 6.14047C31.2148 11.2106 31.1518 11.2106 35.9977 8.73889C39.0814 7.15448 41.284 7.21786 42.1651 8.80226C42.9832 10.3233 42.9832 10.3233 38.8926 15.837C37.2563 18.1819 35.8718 20.5268 35.8718 21.0339C35.8718 21.6042 37.6339 25.8504 39.7107 30.4769C43.6755 39.0961 43.9272 40.5537 41.1582 40.9973C40.4659 41.0607 38.1374 39.9833 35.8718 38.5891ZM34.9278 29.9065L33.2915 26.2307L32.0329 27.7517C31.4036 28.5756 30.8372 29.5263 30.8372 29.9699C30.8372 30.667 35.9347 34.2795 36.3753 33.8358C36.5011 33.7091 35.8718 31.9346 34.9278 29.9065ZM23.9145 31.5543C23.9145 31.2374 23.6628 30.9839 23.2852 30.9839C22.9705 30.9839 22.6559 31.4275 22.6559 31.9979C22.6559 32.5049 22.9705 32.7584 23.2852 32.5683C23.6628 32.3782 23.9145 31.9346 23.9145 31.5543ZM28.9492 24.0125C30.5854 20.7804 30.7113 20.0198 30.082 18.6256C29.3268 16.851 28.5086 16.7243 25.0473 17.7383C22.6559 18.3721 22.6559 18.3721 22.6559 21.8577C22.6559 25.0899 22.7817 25.4068 24.7327 26.5476C25.8025 27.2447 26.8095 27.8151 26.8724 27.8151C26.9982 27.8151 27.8793 26.1039 28.9492 24.0125ZM19.1316 21.7944C20.0756 19.196 18.0618 18.0552 13.8453 18.8157L11.0133 19.3227L14.1599 21.0339C17.81 22.9351 18.6282 23.0619 19.1316 21.7944ZM26.306 12.6682C27.0612 12.2246 26.9982 11.8443 26.1801 10.3233C25.6767 9.30927 24.6697 7.78825 23.9775 6.90098L22.6559 5.31658V9.30927C22.6559 12.9851 22.7817 13.2386 24.1033 13.2386C24.8585 13.2386 25.8655 12.9851 26.306 12.6682Z" fill="white"/>
</svg>
