<svg width="45" height="46" viewBox="0 0 45 46" fill="none" xmlns="http://www.w3.org/2000/svg">
<path d="M19.1723 1.003C18.49 2.06173 16.7843 9.36136 15.8973 15.2679C15.5562 17.2739 14.9421 18.7227 14.328 19.0013C13.7822 19.2242 10.7119 19.7815 7.50516 20.283C2.18332 21.0631 0 22.0103 0 23.5149C0 24.685 3.00207 26.1338 7.43693 27.0254C10.0979 27.5269 12.9635 28.4184 13.714 28.9199C14.601 29.4772 15.6926 31.9289 17.0572 36.0524C19.8546 44.9123 21.2191 46.8625 23.8118 45.6924C25.5858 44.968 25.7905 44.355 27.2233 35.4394C27.9056 31.2603 28.5878 27.694 28.8608 27.5269C29.0655 27.3597 32.0675 26.1338 35.5472 24.7965C44.8945 21.1745 46.8732 19.3914 43.3935 17.5526C42.0971 16.8282 40.5961 16.7167 35.5472 17.0511C28.5878 17.4968 27.5644 17.1625 27.0186 14.2649C26.8139 13.3177 26.3363 10.4201 25.8587 7.80114C24.9035 2.00601 23.7436 -7.49011e-07 21.4921 -7.49011e-07C20.6051 -7.49011e-07 19.5134 0.445779 19.1723 1.003ZM22.1743 11.5345C23.266 19.4471 24.4941 20.6173 31.1805 20.6173C33.5685 20.6173 35.479 20.7845 35.479 21.0073C35.479 21.286 33.5685 22.0661 31.2488 22.8462C25.4493 24.7965 24.6988 25.8552 23.7436 32.9877C23.266 36.331 22.7202 39.0057 22.379 39.0057C22.1061 39.0057 21.5603 38.0584 21.2191 36.8882C20.878 35.7738 20.1275 33.3777 19.5134 31.5389C18.2853 27.5269 16.5114 25.9666 12.0765 24.7407C9.27911 23.9606 8.86974 23.7377 9.82494 23.292C10.5072 23.0134 12.4176 22.7347 14.1234 22.679C17.8077 22.679 17.8759 22.6233 19.4452 14.3207C20.1275 11.033 20.878 8.35836 21.2191 8.35836C21.4921 8.35836 21.9697 9.80714 22.1743 11.5345Z" fill="white"/>
</svg>
